<?xml version="1.0" encoding="utf-8"?>
<!DOCTYPE svg PUBLIC "-//W3C//DTD SVG 1.1//EN" "http://www.w3.org/Graphics/SVG/1.1/DTD/svg11.dtd">
<svg version="1.1" id="Layer_1" xmlns="http://www.w3.org/2000/svg" xmlns:xlink="http://www.w3.org/1999/xlink" x="0px" y="0px"
	 width="126px" height="126px" viewBox="0 0 126 126" enable-background="new 0 0 126 126" xml:space="preserve">
<g stroke="white" fill="white">
	<path d="M10.56,77.728l9.919,11.629c2.191,2.568,5.593,3.63,9.126,3.206l-11.509,10.939c0,0-0.996,3.501,4.96,5.815
		c5.958,2.316,12.004-10.236,12.004-10.236l-4.51-6.664c0.368-0.07,0.739-0.153,1.112-0.265L45.4,102.374
		c7.823,7.109,15.013,4.923,21.031-0.209l13.402-11.43l0.104-0.089l13.4-11.431c6.019-5.132,9.313-11.888,3.526-20.735L88.94,43.302
		c0.168-0.35,0.309-0.703,0.436-1.056l5.868,5.503c0,0,13.35-3.987,12.003-10.236c-1.345-6.247-4.96-5.816-4.96-5.816l-12.619,9.639
		c0.978-3.422,0.466-6.949-1.724-9.517l-9.92-11.631c-2.469-2.895-6.464-3.873-10.471-2.986l-6.667-7.817
		c-2.255-2.646-7.345-2.005-11.377,1.433c-4.026,3.437-5.467,8.365-3.212,11.01l5.546,6.504L37.339,40.7l-0.103,0.089l-14.505,12.37
		l-5.546-6.504c-2.257-2.644-7.352-1.999-11.378,1.436c-4.032,3.439-5.467,8.363-3.212,11.008l6.667,7.817
		C7.755,70.733,8.091,74.832,10.56,77.728z M72.677,28.649l5.338,6.259l-13.166,11.23l-5.339-6.26L72.677,28.649z M63.479,71.56
		l0.104-0.089l24.166-20.611l6.182,12.443l0.096,0.172c1.838,3.043,0.758,8.164-2.265,10.743L76.806,86.974l-0.104,0.088
		L61.744,99.817c-3.022,2.579-8.25,2.836-10.965,0.541l-0.155-0.12L39.313,92.17L63.479,71.56z M32.927,62.552l5.338,6.259
		L25.098,80.04l-5.338-6.259L32.927,62.552z"/>
	<polygon points="94.607,83.198 95.224,86.075 101.563,84.716 96.696,90.539 101.633,95.576 94.951,95.417 92.783,102.613 
		88.68,97.775 82.006,100.085 85.9,91.413 83.217,90.208 76.531,105.092 87.739,101.215 94.039,108.644 97.121,98.411 
		108.803,98.69 100.661,90.382 109.299,80.05 	"/>
</g>
</svg>