<?xml version="1.0" encoding="utf-8"?>
<!DOCTYPE svg PUBLIC "-//W3C//DTD SVG 1.1//EN" "http://www.w3.org/Graphics/SVG/1.1/DTD/svg11.dtd">
<svg version="1.1" id="Capa_1" xmlns="http://www.w3.org/2000/svg" xmlns:xlink="http://www.w3.org/1999/xlink" x="0px" y="0px"
	 width="45.172px" height="31.303px" viewBox="0 0 45.172 31.303" enable-background="new 0 0 45.172 31.303" xml:space="preserve">
<g fill="white" stroke="white">
	<path d="M17.387,16.971c2.664,0.33,5.148,1.178,7.451,2.243c1.117,0.522,2.312,1.206,3.25,1.74
		c0.938,0.553,1.89,1.052,2.853,1.538l-5.837-11.558L23.87,8.766l-4.357-7.633c-0.615-1.077-1.984-1.452-3.062-0.839
		c-1.081,0.618-1.453,1.987-0.837,3.064l4.818,8.448l-1.233,1.094L11.834,17.1l-0.17,0.095
		C13.562,16.796,15.521,16.737,17.387,16.971z"/>
	<path d="M35.67,16.502c2.326-1.327,3.135-4.291,1.81-6.615c-1.325-2.32-4.287-3.133-6.612-1.806
		c-2.322,1.327-3.14,4.292-1.812,6.611C30.381,17.021,33.349,17.829,35.67,16.502z"/>
	<path d="M44.853,20.124c-0.688,2.283-1.774,4.403-3.321,5.498c-1.505,1.096-3.221,1.164-5.111,0.784
		c-1.885-0.395-3.84-1.202-5.754-2.167c-0.969-0.489-1.922-0.989-2.863-1.545c-0.936-0.534-2.135-1.217-3.252-1.739
		c-2.301-1.064-4.787-1.914-7.453-2.243c-2.645-0.332-5.491-0.114-8.06,0.907c-2.575,1.003-4.757,2.764-6.267,4.836
		C1.287,26.551,0.258,28.873,0,31.303c2.887-3.823,6.569-6.563,10.391-7.206c3.81-0.699,7.776,0.45,11.622,2.258
		c1.003,0.455,1.846,0.914,2.95,1.506c1.111,0.559,2.246,1.104,3.414,1.559c2.345,0.904,4.869,1.645,7.648,1.665
		c1.381,0.004,2.846-0.188,4.229-0.761c1.393-0.56,2.638-1.548,3.449-2.731C45.288,25.162,45.452,22.462,44.853,20.124z"/>
</g>
</svg>