<?xml version="1.0" encoding="utf-8"?>
<!-- Generator: Adobe Illustrator 17.0.0, SVG Export Plug-In . SVG Version: 6.00 Build 0)  -->
<!DOCTYPE svg PUBLIC "-//W3C//DTD SVG 1.1//EN" "http://www.w3.org/Graphics/SVG/1.1/DTD/svg11.dtd">
<svg fill="white" stroke="white" version="1.1" id="Capa_1" xmlns="http://www.w3.org/2000/svg" xmlns:xlink="http://www.w3.org/1999/xlink" x="0px" y="0px"
	 width="64px" height="64px" viewBox="0 0 64 64" enable-background="new 0 0 64 64" xml:space="preserve">
<path d="M50.844,37.469l-4.617-4.617c-1.345-1.345-1.345-3.525,0-4.87l4.617-4.617c1.345-1.345,1.345-3.525,0-4.87l-6.088-6.088
	c-1.345-1.345-3.525-1.345-4.87,0l-4.617,4.617c-1.345,1.345-3.525,1.345-4.87,0l-4.617-4.617c-1.345-1.345-3.525-1.345-4.87,0
	l-6.088,6.088c-1.345,1.345-1.345,3.525,0,4.87l4.617,4.617c1.345,1.345,1.345,3.525,0,4.87l-4.617,4.617
	c-1.345,1.345-1.345,3.525,0,4.87l6.088,6.088c1.345,1.345,3.525,1.345,4.87,0l4.617-4.617c1.345-1.345,3.525-1.345,4.87,0
	l4.617,4.617c1.345,1.345,3.525,1.345,4.87,0l6.088-6.088C52.189,40.994,52.189,38.814,50.844,37.469z"/>
</svg>